<?xml version="1.0" encoding="utf-8"?>
<svg xmlns="http://www.w3.org/2000/svg" xmlns:xlink="http://www.w3.org/1999/xlink" version="1.1" id="Layer_1" x="0px" y="0px" viewBox="0 0 84 47.9" style="enable-background:new 0 0 84 47.9;">
<style type="text/css">
	.st0{opacity:0.8;}
	.st1{fill:#F06321;}
</style>
<g class="st0">
	<path class="st1" d="M14,28.1c0.7,0,1.5,0.1,2.2,0.4s1.3,0.7,1.8,1.3c0.5,0.5,0.9,1.1,1.2,1.8c0.3,0.7,0.4,1.4,0.4,2.2&#xA;		c0,0.7-0.1,1.5-0.4,2.2s-0.7,1.3-1.2,1.8s-1.2,1-1.8,1.3c-0.7,0.3-1.4,0.4-2.2,0.4c-0.7,0-1.5-0.1-2.1-0.4&#xA;		c-0.7-0.3-1.3-0.7-1.8-1.3C9.3,37,8.8,36,8.6,34.9c-0.2-1.1-0.1-2.2,0.3-3.3c0.4-1,1.1-1.9,2.1-2.5C11.8,28.4,12.9,28.1,14,28.1&#xA;		L14,28.1z M4.1,23.8c-1.3,1.3-2.4,2.8-3.1,4.6c-0.7,1.7-1,3.6-1,5.4c0,1.9,0.3,3.7,1,5.4s1.7,3.3,3.1,4.5c1.3,1.3,2.8,2.4,4.5,3.1&#xA;		c1.7,0.7,3.5,1,5.4,1c1.8,0,3.7-0.3,5.4-1c1.7-0.7,3.2-1.8,4.5-3.1c2.5-2.4,4-5.7,4.1-9.2c0-0.3,0-0.5,0-0.8v-0.4&#xA;		c0-1.8-0.4-3.6-1.1-5.2s-1.7-3.1-3-4.4s-2.8-2.4-4.5-3.1s-3.5-1.1-5.3-1c-1.8,0-3.7,0.3-5.4,1S5.4,22.4,4.1,23.8"/>
	<path class="st1" d="M42,28.1c0.7,0,1.5,0.1,2.2,0.4s1.3,0.7,1.8,1.3c0.5,0.5,0.9,1.1,1.2,1.8c0.3,0.7,0.4,1.4,0.4,2.2&#xA;		c0,0.7-0.1,1.5-0.4,2.2c-0.3,0.7-0.7,1.3-1.2,1.8s-1.1,1-1.8,1.3s-1.4,0.4-2.2,0.4c-1.1,0-2.2-0.3-3.1-0.9&#xA;		c-0.9-0.6-1.6-1.5-2.1-2.5c-0.4-1-0.5-2.2-0.3-3.3c0.2-1.1,0.8-2.1,1.5-2.9c0.5-0.5,1.1-1,1.8-1.3C40.6,28.3,41.3,28.1,42,28.1&#xA;		L42,28.1z M32.1,23.8c-1.3,1.3-2.4,2.8-3.1,4.6c-0.7,1.7-1,3.6-1,5.4c0,3.7,1.5,7.3,4.1,10c2.6,2.6,6.2,4.1,9.9,4.1&#xA;		c3.6,0,7-1.4,9.6-3.9s4.1-5.9,4.3-9.4c0-0.3,0-0.5,0-0.8v-0.4c0-1.8-0.4-3.6-1-5.2c-0.7-1.7-1.7-3.2-3-4.4&#xA;		c-1.3-1.3-2.8-2.4-4.5-3.1s-3.5-1.1-5.3-1c-1.8,0-3.7,0.3-5.4,1C35,21.4,33.5,22.4,32.1,23.8"/>
	<path class="st1" d="M70,28.1c0.7,0,1.5,0.1,2.2,0.4s1.3,0.7,1.8,1.2s0.9,1.1,1.2,1.8c0.3,0.7,0.4,1.4,0.4,2.2&#xA;		c0,0.7-0.1,1.5-0.4,2.2s-0.7,1.3-1.2,1.8s-1.1,1-1.8,1.3c-0.7,0.3-1.4,0.4-2.2,0.4c-1.1,0-2.2-0.3-3.1-0.9C66,37.9,65.3,37,64.8,36&#xA;		c-0.4-1-0.5-2.2-0.3-3.3c0.2-1.1,0.8-2.1,1.5-2.9c0.5-0.5,1.1-0.9,1.8-1.2C68.6,28.3,69.3,28.2,70,28.1L70,28.1z M60.2,23.8&#xA;		c-1.3,1.3-2.4,2.8-3.1,4.6c-0.7,1.7-1,3.6-1,5.4c0,3.7,1.5,7.3,4.1,10c2.6,2.6,6.2,4.1,9.9,4.1c1.8,0,3.7-0.3,5.4-1&#xA;		c1.7-0.7,3.2-1.8,4.5-3.1c2.5-2.4,3.9-5.7,4.1-9.2c0-0.3,0-0.5,0-0.8v-0.4c0-1.8-0.4-3.6-1.1-5.2s-1.7-3.1-3-4.4&#xA;		c-2.6-2.6-6.2-4.1-9.9-4.1C66.3,19.7,62.7,21.2,60.2,23.8"/>
</g>
<g class="st0">
	<path class="st1" d="M14,8.4c0.8,0,1.5,0.1,2.2,0.4c0.7,0.3,1.3,0.7,1.8,1.3c0.5,0.5,1,1.1,1.2,1.8c0.3,0.7,0.4,1.4,0.4,2.2&#xA;		c0,0.7-0.1,1.5-0.4,2.2c-0.3,0.7-0.7,1.3-1.2,1.8s-1.2,1-1.8,1.3c-0.7,0.3-1.4,0.4-2.2,0.4c-0.7,0-1.5-0.1-2.2-0.4&#xA;		s-1.3-0.7-1.8-1.2S9.1,17,8.8,16.3c-0.3-0.7-0.4-1.4-0.4-2.2c0-0.7,0.2-1.5,0.4-2.1s0.7-1.3,1.2-1.8s1.1-1,1.8-1.3&#xA;		C12.5,8.6,13.2,8.4,14,8.4z M27.9,14.8c0-0.3,0-0.5,0-0.7v-0.4c0-1.8-0.4-3.6-1.1-5.2s-1.7-3.1-3-4.4S21,1.7,19.3,1&#xA;		c-1.7-0.7-3.5-1-5.3-1s-3.7,0.3-5.4,1S5.4,2.8,4.1,4.1S1.7,7,1,8.7s-1.1,3.5-1,5.4c0,1.9,0.3,3.7,1,5.4c0.7,1.7,1.7,3.3,3.1,4.6&#xA;		c1.3,1.3,2.8,2.4,4.5,3.1s3.5,1,5.4,1c1.8,0,3.7-0.3,5.4-1c1.7-0.7,3.2-1.7,4.5-3.1C26.3,21.6,27.8,18.3,27.9,14.8"/>
	<path class="st1" d="M42,8.4c0.7,0,1.5,0.1,2.2,0.4c0.7,0.3,1.3,0.7,1.8,1.3c0.5,0.5,1,1.1,1.2,1.8c0.3,0.7,0.4,1.4,0.4,2.2&#xA;		c0,0.7-0.1,1.5-0.4,2.2C47,17,46.5,17.6,46,18.1s-1.1,1-1.8,1.3s-1.4,0.4-2.2,0.4c-0.7,0-1.5-0.1-2.1-0.4c-0.7-0.3-1.3-0.7-1.8-1.2&#xA;		s-0.9-1.1-1.2-1.8c-0.3-0.7-0.4-1.4-0.4-2.2c0-0.7,0.1-1.5,0.4-2.2c0.3-0.7,0.7-1.3,1.2-1.9c0.5-0.5,1.1-1,1.8-1.2&#xA;		C40.5,8.6,41.3,8.5,42,8.4z M55.9,14.8c0-0.3,0-0.5,0-0.7v-0.4c0-3.6-1.5-7-4-9.6c-1.3-1.3-2.8-2.4-4.5-3.1S43.9,0,42,0&#xA;		c-1.8,0-3.7,0.3-5.4,1s-3.2,1.8-4.5,3.1S29.7,6.9,29,8.6s-1,3.6-1,5.4c0,1.9,0.3,3.7,1,5.4c0.7,1.7,1.7,3.3,3.1,4.5&#xA;		c1.3,1.3,2.8,2.4,4.5,3.1s3.5,1,5.4,1c1.8,0,3.7-0.3,5.4-1s3.2-1.7,4.5-3.1C54.4,21.6,55.9,18.3,55.9,14.8"/>
	<path class="st1" d="M74,10.1c0.5,0.5,1,1.1,1.3,1.8s0.4,1.4,0.4,2.2c0,0.7-0.1,1.5-0.4,2.2C75,17,74.6,17.6,74,18.1&#xA;		c-0.5,0.5-1.1,1-1.8,1.3c-0.7,0.3-1.4,0.4-2.2,0.4c-0.7,0-1.5-0.1-2.2-0.4s-1.3-0.7-1.8-1.2s-0.9-1.2-1.2-1.9&#xA;		c-0.3-0.7-0.4-1.4-0.4-2.2c0-0.7,0.1-1.5,0.4-2.2s0.7-1.3,1.2-1.8s1.1-1,1.8-1.3c0.7-0.3,1.4-0.4,2.1-0.4s1.5,0.1,2.2,0.4&#xA;		C72.9,9.1,73.5,9.5,74,10.1L74,10.1z M84,14.1v-0.4c0-1.8-0.4-3.6-1.1-5.2s-1.7-3.1-3-4.4C77.3,1.5,73.7,0,70,0s-7.2,1.5-9.9,4.1&#xA;		c-1.3,1.3-2.4,2.8-3.1,4.5c-0.7,1.7-1,3.6-1,5.4c0,1.9,0.3,3.7,1,5.4c0.7,1.7,1.7,3.3,3.1,4.5c2.6,2.6,6.2,4.1,9.9,4.1&#xA;		c3.7,0,7.2-1.5,9.9-4.1c2.5-2.4,3.9-5.7,4.1-9.2C83.9,14.5,83.9,14.3,84,14.1"/>
</g>
</svg>