<?xml version="1.0" encoding="utf-8"?>
<svg xmlns="http://www.w3.org/2000/svg" xmlns:xlink="http://www.w3.org/1999/xlink" version="1.1" id="Layer_1" x="0px" y="0px" viewBox="0 0 1214 204.5" style="enable-background:new 0 0 1214 204.5;">
<style type="text/css">
	.st0{fill:#41B6E6;}
	.st1{fill:#1D252D;}
</style>
<g>
	<path class="st0" d="M108.4,95.6c0.8-0.4,1.5-0.8,2.2-1.3c4.3-2.6,8-5.8,11.1-9.3c3-3.6,5.4-7.6,7-11.8c1.6-4.3,2.4-8.8,2.4-13.4&#xD;&#xA;		c0-6.8-1.2-13-3.4-18.4c-2.3-5.6-5.9-10.3-10.7-14.2c-4.7-3.8-10.7-6.7-17.8-8.6c-6.9-1.9-15.1-2.8-24.4-2.8H25.4v165.4h55&#xD;&#xA;		c8.7,0,16.7-1,23.6-3.1c7.1-2.1,13.2-5.2,18.1-9.2c5-4.1,8.8-9.1,11.5-15c2.6-5.8,3.9-12.4,3.9-19.6c0-11.4-3.8-20.9-11.2-28&#xD;&#xA;		C121.7,101.5,115.6,98,108.4,95.6z M44.5,104.9h34.9c6.1,0,11.5,0.7,16.2,2c4.6,1.3,8.5,3.2,11.5,5.6c3,2.3,5.3,5.2,6.9,8.5&#xD;&#xA;		c1.6,3.3,2.4,7.2,2.4,11.5c0,9.5-3,16.6-9,21.7c-6.2,5.2-15.6,7.9-28.2,7.9H44.5V104.9z M103.6,80.7c-2.9,2.7-6.8,4.9-11.4,6.6&#xD;&#xA;		c-4.7,1.7-10.6,2.6-17.4,2.6H44.5V32.7h30.1c13.1,0,22.8,2.5,28.8,7.3c5.8,4.7,8.7,11.7,8.7,21.2c0,3.6-0.7,7.1-2.1,10.5&#xD;&#xA;		C108.6,75.1,106.5,78.1,103.6,80.7z"/>
	<polygon class="st0" points="174.8,104.9 243,104.9 243,87.9 174.8,87.9 174.8,32.7 257,32.7 257,15.7 155.8,15.7 155.8,179.1 &#xD;&#xA;		257,179.1 257.1,162.1 174.8,162.1"/>
	<polygon class="st0" points="272.1,15.7 272.1,32.7 328.2,32.7 328.2,179.1 347.3,179.1 347.3,32.7 401.4,32.7 401.4,15.7"/>
</g>
<g>
	<path class="st1" d="M547.9,16.7L547.9,16.7c-1.4,1.1-2.5,2.6-3.1,4.1l-52.3,127.7L440.1,20.7c-0.7-1.6-1.7-3-3-4.1&#xD;&#xA;		c-1.6-1.3-3.5-2-5.7-2H415l67.8,164.4l1.3,3.1h16.7L570,14.7h-16.3C551.5,14.7,549.6,15.4,547.9,16.7z"/>
	<rect x="583.9" y="14.7" class="st1" width="21" height="167.4"/>
	<path class="st1" d="M751.9,146.1c-2.3-2.2-5.7-2.8-8.6-1.4c-0.7,0.3-1.4,0.8-2.1,1.4l-0.1,0.1c-2.9,2.6-5.9,4.9-8.8,6.9&#xD;&#xA;		c-2.9,1.9-6,3.5-9.4,4.8c-3.4,1.3-7.1,2.3-11.1,3c-4.1,0.7-8.9,1-14.2,1c-8.2,0-15.9-1.5-22.9-4.3c-7-2.9-13.1-7-18.2-12.4&#xD;&#xA;		c-5.1-5.4-9.2-12.1-12.2-20c-3-7.9-4.5-17.1-4.5-27.3c0-10,1.5-19.1,4.5-27c2.9-7.9,7-14.6,12.2-20c5.1-5.4,11.4-9.6,18.5-12.5&#xD;&#xA;		c7.2-2.9,15.3-4.4,24.1-4.4c6.9,0,12.8,0.7,17.6,2.2c5,1.5,9.1,3.1,12.3,4.9c3.3,1.8,5.8,3.4,7.6,4.8c3,2.4,5.2,3.5,7.4,3.5&#xD;&#xA;		c3.9,0,5.9-2.1,6.8-3.4l5.9-8.4l-3.3-2.9c-7.2-6.3-15.3-11.2-24-14.6c-8.8-3.5-19-5.2-30.3-5.2c-11.8,0-22.8,2-32.6,6.1&#xD;&#xA;		c-9.9,4.1-18.5,9.8-25.6,17.2c-7.1,7.3-12.6,16.2-16.5,26.4c-3.9,10.1-5.9,21.4-5.9,33.6c0,12.4,1.9,23.8,5.7,33.9&#xD;&#xA;		c3.8,10.2,9.2,19.1,16.1,26.4c6.9,7.3,15.4,13,25,17c9.6,4,20.3,6,31.7,6c6.8,0,13.1-0.6,18.8-1.7c5.7-1.1,11.1-2.7,15.9-4.7&#xD;&#xA;		c4.8-2,9.4-4.6,13.4-7.5c4-2.9,7.8-6.2,11.3-9.8l3.2-3.3L751.9,146.1L751.9,146.1z"/>
	<polygon class="st1" points="899.7,14.7 768.4,14.7 768.4,33.7 824.5,33.7 824.5,180.1 845.6,180.1 845.6,33.7 899.7,33.7"/>
	<path class="st1" d="M1034.8,37.7L1034.8,37.7c-7-7.3-15.5-13.1-25.3-17c-9.7-3.9-20.6-5.9-32.2-5.9c-11.7,0-22.5,2-32.2,6&#xD;&#xA;		c-9.7,4-18.2,9.7-25.3,17c-7,7.3-12.5,16.2-16.3,26.4c-3.8,10.1-5.7,21.5-5.7,33.8c0,12.4,1.9,23.8,5.7,33.9&#xD;&#xA;		c3.8,10.2,9.3,19.1,16.3,26.4c7,7.3,15.5,13,25.3,17c9.7,3.9,20.5,5.9,32.2,5.9c11.7,0,22.5-2,32.2-5.9c9.8-4,18.3-9.7,25.3-17&#xD;&#xA;		c7-7.3,12.5-16.2,16.3-26.4c3.8-10.1,5.7-21.6,5.7-33.9c0-12.3-1.9-23.7-5.7-33.8C1047.3,53.9,1041.8,45,1034.8,37.7z M1035.3,97.9&#xD;&#xA;		c0,10.2-1.4,19.3-4.3,27.3c-2.8,7.8-6.8,14.6-11.8,19.9c-5,5.4-11.1,9.5-18.2,12.3c-7.1,2.9-15.1,4.3-23.8,4.3&#xD;&#xA;		c-8.6,0-16.6-1.4-23.7-4.3c-7-2.8-13.2-7-18.2-12.4c-5.1-5.4-9.1-12.1-11.9-19.9c-2.9-7.9-4.3-17.1-4.3-27.2&#xD;&#xA;		c0-10.1,1.4-19.2,4.3-27.2c2.8-7.9,6.8-14.6,11.9-20c5.1-5.4,11.2-9.6,18.2-12.4c7.1-2.9,15.1-4.4,23.7-4.4&#xD;&#xA;		c8.7,0,16.7,1.5,23.8,4.4c7.1,2.9,13.2,7,18.2,12.4c5,5.4,9,12.1,11.8,20C1033.9,78.7,1035.3,87.8,1035.3,97.9z"/>
	<path class="st1" d="M1135.1,106.7c3.6-0.9,7.1-2,10.2-3.4c6-2.6,11.1-6,15.4-10.1c4.3-4.1,7.7-9,10-14.5&#xD;&#xA;		c2.3-5.5,3.5-11.6,3.5-18.2c0-14.9-5.1-26.5-15.2-34.4c-9.7-7.6-24.3-11.4-43.2-11.4h-44.7v165.4h21v-70.2h15.4&#xD;&#xA;		c1.3,0,2.4,0.1,3.2,0.2c0.8,0.1,1.2,0.3,1.5,0.4c0.2,0.1,0.5,0.2,0.6,0.4c0.4,0.4,0.8,0.9,1.3,1.6l49.5,62.7&#xD;&#xA;		c1.2,1.8,2.6,3.1,4.2,3.8c1.5,0.7,3.3,1.1,5.2,1.1h20.2L1135.1,106.7z M1144.4,84.3c-3.3,2.7-7.5,4.8-12.4,6.3&#xD;&#xA;		c-5.1,1.5-10.9,2.3-17.4,2.3h-22.4V33.7h24c12.9,0,22.7,2.4,29.2,7.2c6.1,4.5,9,11.4,9,21.1c0,4.8-0.9,9.1-2.6,12.8&#xD;&#xA;		C1150.1,78.5,1147.6,81.7,1144.4,84.3z"/>
</g>
</svg>